# xmcd
#
# Track frame offsets:
#	150
#	10175
#	20336
#	29982
#	40610
#	51418
#	62433
#	72217
#	84976
#	94753
#	103325
#	116498
#	129036
#	137450
#	147769
#	160608
#	170909
#	181591
#	193445
#	205018
#	216329
#	227204
#	237998
#	248051
#
# Disc length: 3483 seconds
#
# Revision: 2
# Processed by: cddbd v1.5.1PL2 Copyright (c) Steve Scherf et al.
# Submitted via: audiograbber 1.82.02
#
DISCID=4c0d9918
DTITLE=Various Artist - Rarest Of The Rare, Vol 13
DYEAR=1900
DGENRE=R&B
TTITLE0=Creations - Mommy And Daddy
TTITLE1=Clouds - Darling I Love You
TTITLE2=Sisters - I'll Get Another
TTITLE3=Videls - A Letter From Ann
TTITLE4=Timmy Reynolds - Duke Of Earl
TTITLE5=Billy Gallant - Scribbling On The Wall
TTITLE6=Good Fellows - Pretty Little Girl
TTITLE7=Wonders - I Wonder
TTITLE8=Titans (Eddie Renae and The) - Snake Leg
TTITLE9=Four Dots (Jerry Stone and The) - My Baby (She Loves Me)
TTITLE10=Four Pearls - It's Almost Tomorrow
TTITLE11=Del Rios - Alone On A Rainy Nite
TTITLE12=Bing Bongs - The Cling
TTITLE13=Magic Notes - Never Again
TTITLE14=Vogues - Nothing To Offer You
TTITLE15=Emmy Lou - I Wanna Know
TTITLE16=Lenny Rocco - Rochelle
TTITLE17=Cyclones (Bob Williams and The) - You Can't Make Me Cry
TTITLE18=Bell-Tones - There She Goes
TTITLE19=Four Dates - Teenage Neighbor
TTITLE20=Calvaes - Anna Mocora
TTITLE21=Desidero's - I Pledge My Love
TTITLE22=Crescendos - I'll Be Seeing You
TTITLE23=Avalons - Is This The End
EXTD=
EXTT0=
EXTT1=
EXTT2=
EXTT3=
EXTT4=
EXTT5=
EXTT6=
EXTT7=
EXTT8=
EXTT9=
EXTT10=
EXTT11=
EXTT12=
EXTT13=
EXTT14=
EXTT15=
EXTT16=
EXTT17=
EXTT18=
EXTT19=
EXTT20=
EXTT21=
EXTT22=
EXTT23=
PLAYORDER=
